<svg width="113" height="44" viewBox="0 0 113 44" fill="none" xmlns="http://www.w3.org/2000/svg">
<rect y="12.3934" width="50" height="20" rx="10" fill="url(#paint0_linear_26_146)"/>
<path d="M61.5268 35V8.81818H71.8563C73.8421 8.81818 75.5339 9.19744 76.9316 9.95597C78.3293 10.706 79.3947 11.75 80.1276 13.0881C80.8691 14.4176 81.2399 15.9517 81.2399 17.6903C81.2399 19.429 80.8649 20.9631 80.1149 22.2926C79.3649 23.6222 78.2782 24.6577 76.8549 25.3991C75.4401 26.1406 73.7271 26.5114 71.7157 26.5114H65.1319V22.0753H70.8208C71.8862 22.0753 72.764 21.892 73.4543 21.5256C74.1532 21.1506 74.6731 20.6349 75.014 19.9787C75.3634 19.3139 75.5382 18.5511 75.5382 17.6903C75.5382 16.821 75.3634 16.0625 75.014 15.4148C74.6731 14.7585 74.1532 14.2514 73.4543 13.8935C72.7555 13.527 71.8691 13.3438 70.7953 13.3438H67.0623V35H61.5268ZM84.7331 35V15.3636H90.1791V35H84.7331ZM87.4689 12.8324C86.6592 12.8324 85.9646 12.5639 85.3851 12.027C84.8141 11.4815 84.5286 10.8295 84.5286 10.071C84.5286 9.32102 84.8141 8.67756 85.3851 8.14062C85.9646 7.59517 86.6592 7.32244 87.4689 7.32244C88.2786 7.32244 88.9689 7.59517 89.5399 8.14062C90.1195 8.67756 90.4092 9.32102 90.4092 10.071C90.4092 10.8295 90.1195 11.4815 89.5399 12.027C88.9689 12.5639 88.2786 12.8324 87.4689 12.8324ZM99.9877 8.81818V35H94.5417V8.81818H99.9877ZM109.796 8.81818V35H104.35V8.81818H109.796Z" fill="white"/>
<defs>
<linearGradient id="paint0_linear_26_146" x1="0" y1="22.3934" x2="50" y2="22.3934" gradientUnits="userSpaceOnUse">
<stop stop-color="#12C2E9"/>
<stop offset="0.5" stop-color="#C471ED"/>
<stop offset="1" stop-color="#F64F59"/>
</linearGradient>
</defs>
</svg>
